<?xml version="1.0" encoding="UTF-8" standalone="no"?>
<svg width="150px" height="43px" viewBox="0 0 150 43" version="1.1" xmlns="http://www.w3.org/2000/svg" xmlns:xlink="http://www.w3.org/1999/xlink">
    <!-- Generator: Sketch 41.2 (35397) - http://www.bohemiancoding.com/sketch -->
    <title>WM-logo@2x</title>
    <desc>Created with Sketch.</desc>
    <defs></defs>
    <g id="!!!-Header---last-updates---pending-approval/feedback" stroke="none" stroke-width="1" fill="none" fill-rule="evenodd">
        <g id="WMT-14740-Global-header-Desktop960px-EN" transform="translate(-8.000000, -34.000000)">
            <g id="Header-960px" transform="translate(0.000000, 16.000000)">
                <g id="Primary-nav" transform="translate(8.000000, 16.000000)">
                    <g id="WM-logo" transform="translate(0.000000, 2.000000)">
                        <g id="Save-more.-Live-better." transform="translate(4.010462, 32.885789)" fill="#1A75CF">
                            <path d="M0.481255449,6.09590235 C0.882301656,6.33653008 1.52397559,6.49694856 2.16564952,6.49694856 C2.88753269,6.49694856 3.20836966,6.1761116 3.20836966,5.77506539 C3.20836966,5.37401918 2.88753269,5.13339146 2.08544028,4.81255449 C0.962510898,4.41150828 0.240627724,3.85004359 0.240627724,2.88753269 C0.240627724,1.76460331 1.20313862,0.882301656 2.72711421,0.882301656 C3.44899738,0.882301656 4.01046207,1.04272014 4.41150828,1.20313862 L4.09067132,2.40627724 C3.85004359,2.24585876 3.36878814,2.08544028 2.72711421,2.08544028 C2.08544028,2.08544028 1.76460331,2.40627724 1.76460331,2.72711421 C1.76460331,3.12816042 2.16564952,3.36878814 2.96774194,3.68962511 C4.17088056,4.09067132 4.65213601,4.73234525 4.65213601,5.69485615 C4.65213601,6.81778553 3.76983435,7.78029643 2.00523104,7.78029643 C1.28334786,7.78029643 0.481255449,7.5396687 0.160418483,7.37925022 L0.481255449,6.09590235 Z" id="Shape"></path>
                            <path d="M9.78552746,6.41673932 C9.78552746,6.89799477 9.78552746,7.29904098 9.8657367,7.61987794 L8.5021796,7.61987794 L8.42197036,7.13862249 L8.42197036,7.13862249 C8.10113339,7.5396687 7.61987794,7.70008718 7.05841325,7.70008718 C6.09590235,7.70008718 5.53443766,6.97820401 5.53443766,6.25632084 C5.53443766,4.97297297 6.65736704,4.41150828 8.34176112,4.41150828 L8.34176112,4.33129904 C8.34176112,4.09067132 8.18134263,3.68962511 7.45945946,3.68962511 C6.97820401,3.68962511 6.41673932,3.85004359 6.09590235,4.09067132 L5.85527463,3.12816042 C6.1761116,2.96774194 6.81778553,2.72711421 7.70008718,2.72711421 C9.30427201,2.72711421 9.78552746,3.68962511 9.78552746,4.81255449 L9.78552746,6.41673932 L9.78552746,6.41673932 Z M8.34176112,5.29380994 C7.5396687,5.29380994 6.97820401,5.45422842 6.97820401,6.01569311 C6.97820401,6.41673932 7.21883173,6.5771578 7.5396687,6.5771578 C7.94071491,6.5771578 8.18134263,6.33653008 8.34176112,6.01569311 L8.34176112,5.77506539 L8.34176112,5.29380994 Z" id="Shape"></path>
                            <path d="M11.951177,2.80732345 L12.5928509,5.05318221 C12.6730602,5.45422842 12.8334786,5.85527463 12.8334786,6.25632084 L12.8334786,6.25632084 C12.9136879,5.85527463 12.9938971,5.53443766 13.0741064,5.05318221 L13.7157803,2.80732345 L15.3199651,2.80732345 L13.5553618,7.61987794 L12.0313862,7.61987794 L10.2667829,2.80732345 L11.951177,2.80732345 Z" id="Shape"></path>
                            <path d="M17.0845684,5.69485615 C17.1647777,6.33653008 17.7262424,6.5771578 18.4481255,6.5771578 C18.929381,6.5771578 19.4106364,6.49694856 19.8116827,6.41673932 L19.9721011,7.45945946 C19.4908457,7.61987794 18.8491718,7.78029643 18.2074978,7.78029643 C16.603313,7.78029643 15.6408021,6.81778553 15.6408021,5.29380994 C15.6408021,4.09067132 16.3626853,2.72711421 18.0470793,2.72711421 C19.5710549,2.72711421 20.2127289,3.93025283 20.2127289,5.13339146 C20.2127289,5.37401918 20.2127289,5.6146469 20.1325196,5.69485615 L17.0845684,5.69485615 Z M18.8491718,4.65213601 C18.8491718,4.2510898 18.6887533,3.68962511 17.9668701,3.68962511 C17.3251962,3.68962511 17.0845684,4.2510898 17.0845684,4.65213601 L18.8491718,4.65213601 Z" id="Shape"></path>
                            <path d="M23.1002616,4.33129904 L23.1002616,2.80732345 L24.3836094,2.80732345 L24.4638187,3.44899738 L24.4638187,3.44899738 C24.7044464,3.12816042 25.1054926,2.72711421 25.907585,2.72711421 C26.5492589,2.72711421 27.0305144,3.04795118 27.1909329,3.52920663 L27.1909329,3.52920663 C27.3513514,3.2885789 27.5919791,3.04795118 27.8326068,2.96774194 C28.0732345,2.80732345 28.3940715,2.72711421 28.7149085,2.72711421 C29.6774194,2.72711421 30.3190933,3.36878814 30.3190933,4.81255449 L30.3190933,7.61987794 L28.8753269,7.61987794 L28.8753269,4.97297297 C28.8753269,4.2510898 28.6346992,3.85004359 28.1534438,3.85004359 C27.8326068,3.85004359 27.5919791,4.09067132 27.4315606,4.41150828 C27.4315606,4.49171752 27.3513514,4.65213601 27.3513514,4.81255449 L27.3513514,7.61987794 L25.907585,7.61987794 L25.907585,4.89276373 C25.907585,4.2510898 25.6669573,3.85004359 25.1857018,3.85004359 C24.7846556,3.85004359 24.5440279,4.17088056 24.4638187,4.41150828 C24.3836094,4.49171752 24.3836094,4.65213601 24.3836094,4.81255449 L24.3836094,7.61987794 L22.9398431,7.61987794 L22.9398431,4.33129904 L23.1002616,4.33129904 Z" id="Shape"></path>
                            <path d="M36.3347864,5.13339146 C36.3347864,6.89799477 35.0514385,7.70008718 33.7680907,7.70008718 C32.3243243,7.70008718 31.2816042,6.73757629 31.2816042,5.2136007 C31.2816042,3.68962511 32.3243243,2.64690497 33.8482999,2.64690497 C35.2920663,2.64690497 36.3347864,3.68962511 36.3347864,5.13339146 M32.8055798,5.2136007 C32.8055798,6.01569311 33.1264167,6.65736704 33.7680907,6.65736704 C34.3295554,6.65736704 34.7306016,6.09590235 34.7306016,5.2136007 C34.7306016,4.49171752 34.4899738,3.76983435 33.7680907,3.76983435 C33.1264167,3.76983435 32.8055798,4.49171752 32.8055798,5.2136007" id="Shape"></path>
                            <path d="M37.2170881,4.33129904 L37.2170881,2.80732345 L38.5004359,2.80732345 L38.5806452,3.44899738 L38.5806452,3.44899738 C38.7410636,3.12816042 39.3025283,2.64690497 40.0244115,2.64690497 C40.9869224,2.64690497 41.7088056,3.2885789 41.7088056,4.73234525 L41.7088056,7.61987794 L40.18483,7.61987794 L40.18483,4.97297297 C40.18483,4.33129904 39.9442023,3.93025283 39.4629468,3.93025283 C39.0619006,3.93025283 38.8212729,4.2510898 38.7410636,4.49171752 C38.7410636,4.57192677 38.6608544,4.73234525 38.6608544,4.89276373 L38.6608544,7.70008718 L37.1368788,7.70008718 L37.1368788,4.33129904 L37.2170881,4.33129904 Z" id="Shape"></path>
                            <path d="M44.1150828,5.69485615 C44.1952921,6.33653008 44.7567568,6.5771578 45.4786399,6.5771578 C45.9598954,6.5771578 46.4411508,6.49694856 46.842197,6.41673932 L47.0026155,7.45945946 C46.5213601,7.61987794 45.8796861,7.78029643 45.2380122,7.78029643 C43.6338274,7.78029643 42.6713165,6.81778553 42.6713165,5.29380994 C42.6713165,4.09067132 43.3931997,2.72711421 45.0775937,2.72711421 C46.6015693,2.72711421 47.2432432,3.93025283 47.2432432,5.13339146 C47.2432432,5.37401918 47.2432432,5.6146469 47.163034,5.69485615 L44.1150828,5.69485615 Z M45.8796861,4.65213601 C45.8796861,4.2510898 45.7192677,3.68962511 44.9973845,3.68962511 C44.3557105,3.68962511 44.1150828,4.2510898 44.1150828,4.65213601 L45.8796861,4.65213601 Z" id="Shape"></path>
                            <path d="M49.2484743,2.80732345 L49.9703575,5.13339146 C50.0505667,5.45422842 50.1307759,5.77506539 50.2109852,6.01569311 L50.2109852,6.01569311 C50.2911944,5.77506539 50.3714037,5.37401918 50.4516129,5.13339146 L51.0130776,2.80732345 L52.6172624,2.80732345 L51.494333,5.93548387 C50.7724499,7.86050567 50.3714037,8.58238884 49.809939,9.06364429 C49.3286835,9.54489974 48.7672188,9.70531822 48.3661726,9.70531822 L48.0453357,8.42197036 C48.2057541,8.42197036 48.4463819,8.34176112 48.6870096,8.18134263 C48.9276373,8.10113339 49.168265,7.86050567 49.3286835,7.61987794 C49.4088928,7.5396687 49.4088928,7.45945946 49.4088928,7.37925022 C49.4088928,7.29904098 49.4088928,7.21883173 49.3286835,7.13862249 L47.5640802,2.72711421 L49.2484743,2.72711421 L49.2484743,2.80732345 Z" id="Shape"></path>
                            <path d="M53.4995641,7.70008718 C53.0183086,7.70008718 52.6172624,7.29904098 52.6172624,6.81778553 C52.6172624,6.25632084 53.0183086,5.93548387 53.4995641,5.93548387 C54.0610288,5.93548387 54.3818657,6.33653008 54.3818657,6.81778553 C54.3818657,7.29904098 53.9808195,7.70008718 53.4995641,7.70008718 L53.4995641,7.70008718 Z" id="Shape"></path>
                            <polygon id="Shape" points="57.6704446 0.962510898 59.1944202 0.962510898 59.1944202 6.33653008 61.8413252 6.33653008 61.8413252 7.61987794 57.6704446 7.61987794"></polygon>
                            <path d="M64.4080209,1.44376635 C64.4080209,1.84481255 64.087184,2.16564952 63.6059285,2.16564952 C63.1246731,2.16564952 62.8038361,1.84481255 62.8038361,1.44376635 C62.8038361,1.04272014 63.1246731,0.721883173 63.6059285,0.721883173 C64.087184,0.721883173 64.4080209,1.04272014 64.4080209,1.44376635 L64.4080209,1.44376635 Z M62.8840453,7.61987794 L62.8840453,2.80732345 L64.4080209,2.80732345 L64.4080209,6.41673932 L64.4080209,7.61987794 L62.8840453,7.61987794 Z" id="Shape"></path>
                            <path d="M66.8945074,2.80732345 L67.5361813,5.05318221 C67.6163906,5.45422842 67.7768091,5.85527463 67.7768091,6.25632084 L67.7768091,6.25632084 C67.8570183,5.85527463 67.9372276,5.53443766 68.0174368,5.05318221 L68.6591107,2.80732345 L70.2632956,2.80732345 L68.4986922,7.61987794 L66.9747167,7.61987794 L65.2101133,2.80732345 L66.8945074,2.80732345 Z" id="Shape"></path>
                            <path d="M71.9476896,5.69485615 C72.0278989,6.33653008 72.5893636,6.5771578 73.3112467,6.5771578 C73.7925022,6.5771578 74.2737576,6.49694856 74.6748038,6.41673932 L74.8352223,7.45945946 C74.3539669,7.61987794 73.7122929,7.78029643 73.070619,7.78029643 C71.4664342,7.78029643 70.5039233,6.81778553 70.5039233,5.29380994 C70.5039233,4.09067132 71.2258065,2.72711421 72.9102005,2.72711421 C74.4341761,2.72711421 75.07585,3.93025283 75.07585,5.13339146 C75.07585,5.37401918 75.07585,5.6146469 74.9956408,5.69485615 L71.9476896,5.69485615 Z M73.7122929,4.65213601 C73.7122929,4.2510898 73.5518745,3.68962511 72.8299913,3.68962511 C72.1883173,3.68962511 71.9476896,4.2510898 71.9476896,4.65213601 L73.7122929,4.65213601 Z" id="Shape"></path>
                            <path d="M77.9633827,0.641673932 L79.4873583,0.641673932 L79.4873583,3.36878814 L79.4873583,3.36878814 C79.8081953,2.96774194 80.2894507,2.72711421 80.9311247,2.72711421 C82.0540541,2.72711421 82.9363557,3.68962511 82.9363557,5.13339146 C82.9363557,6.89799477 81.8134263,7.70008718 80.7707062,7.70008718 C80.2092415,7.70008718 79.6477768,7.45945946 79.3269398,6.89799477 L79.3269398,6.89799477 L79.2467306,7.5396687 L77.9633827,7.5396687 L77.9633827,6.09590235 L77.9633827,0.641673932 L77.9633827,0.641673932 Z M79.4873583,5.53443766 L79.4873583,5.77506539 C79.5675676,6.1761116 79.9686138,6.49694856 80.36966,6.49694856 C81.0113339,6.49694856 81.4123801,6.01569311 81.4123801,5.13339146 C81.4123801,4.41150828 81.0915432,3.76983435 80.36966,3.76983435 C79.9686138,3.76983435 79.5675676,4.09067132 79.4873583,4.49171752 L79.4873583,4.73234525 L79.4873583,5.53443766 Z" id="Shape"></path>
                            <path d="M85.021796,5.69485615 C85.1020052,6.33653008 85.6634699,6.5771578 86.3853531,6.5771578 C86.8666085,6.5771578 87.347864,6.49694856 87.7489102,6.41673932 L87.9093287,7.45945946 C87.4280732,7.61987794 86.7863993,7.78029643 86.1447254,7.78029643 C84.5405405,7.78029643 83.5780296,6.81778553 83.5780296,5.29380994 C83.5780296,4.09067132 84.2999128,2.72711421 85.9843069,2.72711421 C87.5082825,2.72711421 88.1499564,3.93025283 88.1499564,5.13339146 C88.1499564,5.37401918 88.1499564,5.6146469 88.0697472,5.69485615 L85.021796,5.69485615 Z M86.7863993,4.65213601 C86.7863993,4.2510898 86.6259808,3.68962511 85.9843069,3.68962511 C85.342633,3.68962511 85.1020052,4.2510898 85.021796,4.65213601 L86.7863993,4.65213601 Z" id="Shape"></path>
                            <path d="M90.9572799,1.52397559 L90.9572799,2.80732345 L92,2.80732345 L92,3.93025283 L90.9572799,3.93025283 L90.9572799,5.69485615 C90.9572799,6.25632084 91.1176983,6.5771578 91.5187446,6.5771578 C91.7593723,6.5771578 91.8395815,6.5771578 92,6.49694856 L92,7.61987794 C91.8395815,7.70008718 91.4385353,7.78029643 91.0374891,7.78029643 C90.5562337,7.78029643 90.1551874,7.61987794 89.9145597,7.37925022 C89.673932,7.05841325 89.5135135,6.65736704 89.5135135,5.93548387 L89.5135135,3.93025283 L88.8718396,3.93025283 L88.8718396,2.80732345 L89.5135135,2.80732345 L89.5135135,1.9250218 L90.9572799,1.52397559 Z" id="Shape"></path>
                            <path d="M94.7271142,1.52397559 L94.7271142,2.80732345 L95.7698344,2.80732345 L95.7698344,3.93025283 L94.7271142,3.93025283 L94.7271142,5.69485615 C94.7271142,6.25632084 94.8875327,6.5771578 95.2885789,6.5771578 C95.5292066,6.5771578 95.6094159,6.5771578 95.7698344,6.49694856 L95.7698344,7.61987794 C95.6094159,7.70008718 95.2083697,7.78029643 94.8073235,7.78029643 C94.326068,7.78029643 93.9250218,7.61987794 93.6843941,7.37925022 C93.4437663,7.05841325 93.2833479,6.65736704 93.2833479,5.93548387 L93.2833479,3.93025283 L92.6416739,3.93025283 L92.6416739,2.80732345 L93.2833479,2.80732345 L93.2833479,1.9250218 L94.7271142,1.52397559 Z" id="Shape"></path>
                            <path d="M98.0156931,5.69485615 C98.0959024,6.33653008 98.657367,6.5771578 99.3792502,6.5771578 C99.8605057,6.5771578 100.261552,6.49694856 100.742807,6.41673932 L100.903226,7.45945946 C100.42197,7.61987794 99.7802964,7.78029643 99.1386225,7.78029643 C97.5344377,7.78029643 96.5719268,6.81778553 96.5719268,5.29380994 C96.5719268,4.09067132 97.2938099,2.72711421 98.978204,2.72711421 C100.50218,2.72711421 101.143854,3.93025283 101.143854,5.13339146 C101.143854,5.37401918 101.143854,5.6146469 101.063644,5.69485615 L98.0156931,5.69485615 Z M99.7802964,4.65213601 C99.7802964,4.2510898 99.6198779,3.68962511 98.8979948,3.68962511 C98.2563208,3.68962511 98.0156931,4.2510898 97.9354839,4.65213601 L99.7802964,4.65213601 Z" id="Shape"></path>
                            <path d="M102.266783,4.41150828 C102.266783,3.68962511 102.266783,3.20836966 102.186574,2.80732345 L103.469922,2.80732345 L103.550131,3.68962511 L103.550131,3.68962511 C103.790759,2.96774194 104.352223,2.72711421 104.833479,2.72711421 L105.154316,2.72711421 L105.154316,4.17088056 C105.074106,4.17088056 104.913688,4.09067132 104.753269,4.09067132 C104.191805,4.09067132 103.870968,4.41150828 103.710549,4.81255449 L103.710549,5.13339146 L103.710549,7.5396687 L102.186574,7.5396687 L102.186574,4.41150828 L102.266783,4.41150828 Z" id="Shape"></path>
                            <path d="M106.517873,7.70008718 C106.036617,7.70008718 105.635571,7.29904098 105.635571,6.81778553 C105.635571,6.25632084 105.956408,5.93548387 106.517873,5.93548387 C106.999128,5.93548387 107.400174,6.33653008 107.400174,6.81778553 C107.400174,7.29904098 107.079337,7.70008718 106.517873,7.70008718 L106.517873,7.70008718 Z" id="dot"></path>
                        </g>
                        <g id="Spark" transform="translate(116.303400, 0.000000)" fill="#FDBB30">
                            <path d="M16.603313,12.3522232 C17.4856146,12.3522232 18.1272886,11.8709677 18.2877071,11.3095031 L19.1700087,1.76460331 C19.1700087,0.802092415 18.0470793,0.0802092415 16.6835222,0.0802092415 C15.3199651,0.0802092415 14.1970357,0.882301656 14.1970357,1.76460331 L14.9991282,11.3095031 C15.0793374,11.8709677 15.8012206,12.3522232 16.603313,12.3522232 Z M11.4699215,15.3199651 C11.8709677,14.598082 11.8709677,13.7157803 11.3897123,13.3949433 L3.52920663,7.94071491 C2.72711421,7.45945946 1.52397559,8.02092415 0.802092415,9.22406277 C0.0802092415,10.4272014 0.240627724,11.7907585 1.04272014,12.2720139 L9.70531822,16.282476 C10.2667829,16.4428945 11.0688753,16.0418483 11.4699215,15.3199651 Z M21.7367044,15.3199651 C22.1377507,16.0418483 22.9398431,16.4428945 23.4210985,16.282476 L32.0836966,12.2720139 C32.885789,11.7907585 33.0462075,10.4272014 32.3243243,9.22406277 C31.6024412,8.02092415 30.3993025,7.45945946 29.5972101,7.94071491 L21.7367044,13.4751526 C21.4158675,13.7157803 21.3356582,14.598082 21.7367044,15.3199651 Z M16.603313,24.2231909 C17.4856146,24.2231909 18.1272886,24.7044464 18.2877071,25.2659111 L19.1700087,34.8108108 C19.1700087,35.7733217 18.0470793,36.4952049 16.6835222,36.4952049 C15.3199651,36.4952049 14.1970357,35.6931125 14.1970357,34.8108108 L14.9991282,25.2659111 C15.0793374,24.7044464 15.8012206,24.2231909 16.603313,24.2231909 Z M21.7367044,21.255449 C22.1377507,20.5335658 22.9398431,20.1325196 23.4210985,20.3731473 L32.0836966,24.3836094 C32.885789,24.8648649 33.0462075,26.228422 32.3243243,27.4315606 C31.6024412,28.6346992 30.3993025,29.1961639 29.5972101,28.7149085 L21.7367044,23.1804708 C21.4158675,22.8596338 21.3356582,21.9773322 21.7367044,21.255449 Z M11.4699215,21.255449 C11.8709677,21.9773322 11.8709677,22.8596338 11.3897123,23.1804708 L3.52920663,28.6346992 C2.72711421,29.1159547 1.52397559,28.55449 0.802092415,27.3513514 C0.0802092415,26.1482127 0.240627724,24.7846556 1.04272014,24.3034002 L9.70531822,20.2929381 C10.2667829,20.1325196 11.0688753,20.5335658 11.4699215,21.255449 Z"></path>
                        </g>
                        <g id="Walmart" transform="translate(0.000000, 7.218832)" fill="#1A75CF">
                            <path d="M84.2999128,16.0418483 C84.2999128,16.3626853 84.2999128,16.603313 84.2197036,16.92415 C83.8988666,18.0470793 82.7759372,18.929381 81.3321709,18.929381 C80.1290323,18.929381 79.1665214,18.2877071 79.1665214,16.8439407 C79.1665214,14.6782912 81.5727986,14.0366173 84.2999128,14.0366173 L84.2999128,16.0418483 L84.2999128,16.0418483 Z M88.6312119,12.1918047 C88.6312119,8.58238884 87.1072363,5.45422842 81.8936356,5.45422842 C79.2467306,5.45422842 77.0810811,6.1761116 75.9581517,6.89799477 L76.8404534,9.78552746 C77.8831735,9.14385353 79.5675676,8.58238884 81.1717524,8.58238884 C83.8186574,8.58238884 84.2197036,10.1063644 84.2197036,11.0688753 L84.2197036,11.3095031 C78.4446382,11.3095031 74.8352223,13.3147341 74.8352223,17.3251962 C74.8352223,19.8116827 76.6800349,22.1377507 79.8884045,22.1377507 C81.8936356,22.1377507 83.4978204,21.3356582 84.5405405,20.0523104 L84.6207498,20.0523104 C84.6207498,20.0523104 85.2624237,22.7794246 88.8718396,21.7367044 C88.7114211,20.6137751 88.6312119,19.4106364 88.6312119,17.8866609 L88.6312119,12.1918047 L88.6312119,12.1918047 Z" id="Shape"></path>
                            <path d="M0.641673932,0.56146469 C0.641673932,0.56146469 4.41150828,15.9616391 4.97297297,18.4481255 C5.69485615,21.3356582 6.89799477,22.4585876 10.5876199,21.7367044 L12.9136879,12.1918047 C13.4751526,9.78552746 13.8761988,8.10113339 14.277245,5.69485615 L14.3574542,5.69485615 C14.598082,8.10113339 14.9991282,9.78552746 15.4803836,12.1918047 C15.4803836,12.1918047 16.4428945,16.5231037 16.92415,18.7689625 C17.4054054,21.0148213 18.7689625,22.4585876 22.2981691,21.6564952 L27.912816,0.481255449 L23.4210985,0.481255449 L21.4960767,9.62510898 C21.0148213,12.2720139 20.5335658,14.3574542 20.1325196,16.7637315 L20.0523104,16.7637315 C19.7314734,14.3574542 19.3304272,12.3522232 18.7689625,9.78552746 L16.7637315,0.481255449 L12.0313862,0.481255449 L9.94594595,9.54489974 C9.38448126,12.2720139 8.74280732,14.5178727 8.42197036,16.8439407 L8.34176112,16.8439407 C7.94071491,14.598082 7.45945946,11.7907585 6.97820401,9.14385353 C6.97820401,9.14385353 5.69485615,2.64690497 5.29380994,0.401046207 L0.641673932,0.401046207 L0.641673932,0.56146469 Z" id="Shape"></path>
                            <path d="M36.2545772,16.0418483 C36.2545772,16.3626853 36.2545772,16.603313 36.1743679,16.92415 C35.853531,18.0470793 34.7306016,18.929381 33.2868352,18.929381 C32.0836966,18.929381 31.1211857,18.2877071 31.1211857,16.8439407 C31.1211857,14.6782912 33.5274629,14.0366173 36.2545772,14.0366173 L36.2545772,16.0418483 L36.2545772,16.0418483 Z M40.505667,12.1918047 C40.505667,8.58238884 38.9816914,5.45422842 33.7680907,5.45422842 C31.1211857,5.45422842 28.9555362,6.1761116 27.8326068,6.89799477 L28.7149085,9.78552746 C29.7576286,9.14385353 31.4420227,8.58238884 33.0462075,8.58238884 C35.6931125,8.58238884 36.0941587,10.1063644 36.0941587,11.0688753 L36.0941587,11.3095031 C30.3190933,11.3095031 26.7096774,13.3147341 26.7096774,17.3251962 C26.7096774,19.8116827 28.55449,22.1377507 31.7628596,22.1377507 C33.7680907,22.1377507 35.3722755,21.3356582 36.4149956,20.0523104 L36.4952049,20.0523104 C36.4952049,20.0523104 37.1368788,22.7794246 40.7462947,21.7367044 C40.5858762,20.6137751 40.505667,19.4106364 40.505667,17.8866609 L40.505667,12.1918047 L40.505667,12.1918047 Z" id="Shape"></path>
                            <polygon id="Shape" points="47.163034 17.2449869 47.163034 0.56146469 42.831735 0.56146469 42.831735 21.7367044 47.163034 21.7367044"></polygon>
                            <path d="M101.785527,0.56146469 L101.785527,16.1220575 C101.785527,18.2877071 102.186574,19.8116827 103.068875,20.6939843 C103.790759,21.4960767 105.074106,22.0575414 106.598082,22.0575414 C107.88143,22.0575414 109.084568,21.8169137 109.726242,21.576286 L109.646033,18.2074978 C109.244987,18.2877071 108.683522,18.3679163 108.041848,18.3679163 C106.598082,18.3679163 106.116827,17.4054054 106.116827,15.4803836 L106.116827,9.62510898 L109.886661,9.62510898 L109.886661,5.6146469 L106.116827,5.6146469 L106.116827,0.641673932 L101.785527,0.641673932 L101.785527,0.56146469 Z" id="Shape"></path>
                            <path d="M90.6364429,5.85527463 L90.6364429,21.7367044 L95.0479512,21.7367044 L95.0479512,13.6355711 C95.0479512,13.2345248 95.0479512,12.8334786 95.1281604,12.4324324 C95.4489974,10.7480384 96.7323452,9.62510898 98.657367,9.62510898 C99.1386225,9.62510898 99.5396687,9.70531822 99.9407149,9.70531822 L99.9407149,5.53443766 C99.6198779,5.45422842 99.3792502,5.45422842 98.978204,5.45422842 C97.2938099,5.45422842 95.4489974,6.49694856 94.646905,8.82301656 L94.4864865,8.82301656 L94.4864865,5.85527463 L90.6364429,5.85527463 Z" id="Shape"></path>
                            <path d="M49.6495205,5.85527463 L49.6495205,21.7367044 L53.9808195,21.7367044 L53.9808195,12.4324324 C53.9808195,12.0313862 54.0610288,11.5501308 54.2214473,11.1490846 C54.5422842,10.1865737 55.4245859,9.14385353 56.8683522,9.14385353 C58.6329555,9.14385353 59.435048,10.5876199 59.435048,12.7532694 L59.435048,21.8169137 L63.766347,21.8169137 L63.766347,12.4324324 C63.766347,12.0313862 63.8465562,11.5501308 63.9267655,11.1490846 C64.2476024,10.1063644 65.2101133,9.22406277 66.4934612,9.22406277 C68.2580645,9.22406277 69.1403662,10.6678291 69.1403662,13.1543156 L69.1403662,21.8169137 L73.4716652,21.8169137 L73.4716652,12.4324324 C73.4716652,7.5396687 70.9851787,5.53443766 68.1778553,5.53443766 C66.8945074,5.53443766 65.9319965,5.85527463 65.0496949,6.41673932 C64.3278117,6.89799477 63.6059285,7.5396687 63.0444638,8.42197036 L62.9642546,8.42197036 C62.2423714,6.73757629 60.7183958,5.6146469 58.5527463,5.6146469 C55.9058413,5.6146469 54.6224935,6.97820401 53.9006103,8.10113339 L53.7401918,8.10113339 L53.7401918,5.93548387 L49.6495205,5.93548387 L49.6495205,5.85527463 Z" id="Shape"></path>
                        </g>
                    </g>
                </g>
            </g>
        </g>
    </g>
</svg>